<svg width="33" height="32" viewBox="0 0 33 32" fill="none" xmlns="http://www.w3.org/2000/svg">
<mask id="mask0_214364_6093" style="mask-type:alpha" maskUnits="userSpaceOnUse" x="0" y="0" width="33" height="32">
<rect x="0.5" width="32" height="32" fill="#D9D9D9"/>
</mask>
<g mask="url(#mask0_214364_6093)">
<path d="M7.16667 25.3332H9.03333L20.5333 13.8332L18.6667 11.9665L7.16667 23.4665V25.3332ZM26.2333 11.8998L20.5667 6.29984L22.4333 4.43317C22.9444 3.92206 23.5722 3.6665 24.3167 3.6665C25.0611 3.6665 25.6889 3.92206 26.2 4.43317L28.0667 6.29984C28.5778 6.81095 28.8444 7.42761 28.8667 8.14984C28.8889 8.87206 28.6444 9.48873 28.1333 9.99984L26.2333 11.8998ZM24.3 13.8665L10.1667 27.9998H4.5V22.3332L18.6333 8.19984L24.3 13.8665Z" fill="white"/>
</g>
</svg>
